<mxfile host="app.diagrams.net" modified="2021-06-11T04:56:33.688Z" agent="5.0 (Macintosh; Intel Mac OS X 10_15_7) AppleWebKit/537.36 (KHTML, like Gecko) Chrome/91.0.4472.77 Safari/537.36" etag="uIz3XBd1XcTy1AR1fK9u" version="14.7.4" type="github">
  <diagram id="tA1-BtXO74qz6d9247cC" name="Page-1">
    <mxGraphModel dx="2066" dy="1128" grid="1" gridSize="10" guides="1" tooltips="1" connect="1" arrows="1" fold="1" page="1" pageScale="1" pageWidth="827" pageHeight="1169" math="0" shadow="0">
      <root>
        <mxCell id="0" />
        <mxCell id="1" parent="0" />
        <mxCell id="bGlqDA3MX0pg0jxU6W6w-1" value="客户端1" style="rounded=0;whiteSpace=wrap;html=1;" parent="1" vertex="1">
          <mxGeometry x="10" y="510" width="120" height="60" as="geometry" />
        </mxCell>
        <mxCell id="bGlqDA3MX0pg0jxU6W6w-4" value="客户端代理1" style="rounded=0;whiteSpace=wrap;html=1;" parent="1" vertex="1">
          <mxGeometry x="10" y="410" width="120" height="60" as="geometry" />
        </mxCell>
        <mxCell id="bGlqDA3MX0pg0jxU6W6w-6" value="" style="endArrow=classic;startArrow=classic;html=1;entryX=0.5;entryY=1;entryDx=0;entryDy=0;" parent="1" target="bGlqDA3MX0pg0jxU6W6w-4" edge="1">
          <mxGeometry width="50" height="50" relative="1" as="geometry">
            <mxPoint x="70" y="510" as="sourcePoint" />
            <mxPoint x="30" y="600" as="targetPoint" />
          </mxGeometry>
        </mxCell>
        <mxCell id="bGlqDA3MX0pg0jxU6W6w-7" value="客户端1" style="rounded=0;whiteSpace=wrap;html=1;" parent="1" vertex="1">
          <mxGeometry x="250" y="510" width="120" height="60" as="geometry" />
        </mxCell>
        <mxCell id="bGlqDA3MX0pg0jxU6W6w-8" value="客户端代理2" style="rounded=0;whiteSpace=wrap;html=1;" parent="1" vertex="1">
          <mxGeometry x="250" y="410" width="120" height="60" as="geometry" />
        </mxCell>
        <mxCell id="bGlqDA3MX0pg0jxU6W6w-9" value="" style="endArrow=classic;startArrow=classic;html=1;entryX=0.5;entryY=1;entryDx=0;entryDy=0;" parent="1" target="bGlqDA3MX0pg0jxU6W6w-8" edge="1">
          <mxGeometry width="50" height="50" relative="1" as="geometry">
            <mxPoint x="310" y="510" as="sourcePoint" />
            <mxPoint x="270" y="600" as="targetPoint" />
          </mxGeometry>
        </mxCell>
        <mxCell id="bGlqDA3MX0pg0jxU6W6w-10" value="客户端1" style="rounded=0;whiteSpace=wrap;html=1;" parent="1" vertex="1">
          <mxGeometry x="610" y="510" width="120" height="60" as="geometry" />
        </mxCell>
        <mxCell id="bGlqDA3MX0pg0jxU6W6w-11" value="客户端代理3" style="rounded=0;whiteSpace=wrap;html=1;" parent="1" vertex="1">
          <mxGeometry x="610" y="410" width="120" height="60" as="geometry" />
        </mxCell>
        <mxCell id="bGlqDA3MX0pg0jxU6W6w-12" value="" style="endArrow=classic;startArrow=classic;html=1;entryX=0.5;entryY=1;entryDx=0;entryDy=0;" parent="1" target="bGlqDA3MX0pg0jxU6W6w-11" edge="1">
          <mxGeometry width="50" height="50" relative="1" as="geometry">
            <mxPoint x="670" y="510" as="sourcePoint" />
            <mxPoint x="630" y="600" as="targetPoint" />
          </mxGeometry>
        </mxCell>
        <mxCell id="bGlqDA3MX0pg0jxU6W6w-25" value="" style="edgeStyle=orthogonalEdgeStyle;rounded=0;orthogonalLoop=1;jettySize=auto;html=1;" parent="1" source="bGlqDA3MX0pg0jxU6W6w-13" target="bGlqDA3MX0pg0jxU6W6w-24" edge="1">
          <mxGeometry relative="1" as="geometry" />
        </mxCell>
        <mxCell id="bGlqDA3MX0pg0jxU6W6w-13" value="数据包云平台&lt;br&gt;（标注）" style="rounded=1;whiteSpace=wrap;html=1;" parent="1" vertex="1">
          <mxGeometry x="360" y="20" width="120" height="60" as="geometry" />
        </mxCell>
        <mxCell id="bGlqDA3MX0pg0jxU6W6w-15" value="中转客户端换装置" style="rounded=1;whiteSpace=wrap;html=1;" parent="1" vertex="1">
          <mxGeometry x="180" y="260" width="120" height="60" as="geometry" />
        </mxCell>
        <mxCell id="bGlqDA3MX0pg0jxU6W6w-18" value="" style="endArrow=classic;startArrow=classic;html=1;entryX=0.5;entryY=1;entryDx=0;entryDy=0;exitX=0.5;exitY=0;exitDx=0;exitDy=0;" parent="1" source="bGlqDA3MX0pg0jxU6W6w-4" target="bGlqDA3MX0pg0jxU6W6w-15" edge="1">
          <mxGeometry width="50" height="50" relative="1" as="geometry">
            <mxPoint x="130" y="460" as="sourcePoint" />
            <mxPoint x="280" y="300" as="targetPoint" />
          </mxGeometry>
        </mxCell>
        <mxCell id="bGlqDA3MX0pg0jxU6W6w-19" value="完成包下载 且 提供 代理服务" style="edgeLabel;html=1;align=center;verticalAlign=middle;resizable=0;points=[];" parent="bGlqDA3MX0pg0jxU6W6w-18" vertex="1" connectable="0">
          <mxGeometry x="0.0904" y="-1" relative="1" as="geometry">
            <mxPoint as="offset" />
          </mxGeometry>
        </mxCell>
        <mxCell id="bGlqDA3MX0pg0jxU6W6w-22" value="" style="endArrow=classic;html=1;exitX=0.5;exitY=1;exitDx=0;exitDy=0;entryX=0.5;entryY=0;entryDx=0;entryDy=0;" parent="1" source="bGlqDA3MX0pg0jxU6W6w-15" target="bGlqDA3MX0pg0jxU6W6w-8" edge="1">
          <mxGeometry width="50" height="50" relative="1" as="geometry">
            <mxPoint x="410" y="330" as="sourcePoint" />
            <mxPoint x="390" y="420" as="targetPoint" />
          </mxGeometry>
        </mxCell>
        <mxCell id="bGlqDA3MX0pg0jxU6W6w-23" value="命中代理点" style="edgeLabel;html=1;align=center;verticalAlign=middle;resizable=0;points=[];" parent="bGlqDA3MX0pg0jxU6W6w-22" vertex="1" connectable="0">
          <mxGeometry x="-0.0792" y="2" relative="1" as="geometry">
            <mxPoint as="offset" />
          </mxGeometry>
        </mxCell>
        <mxCell id="bGlqDA3MX0pg0jxU6W6w-24" value="中转管理服务层" style="rounded=1;whiteSpace=wrap;html=1;" parent="1" vertex="1">
          <mxGeometry x="360" y="110" width="120" height="60" as="geometry" />
        </mxCell>
        <mxCell id="bGlqDA3MX0pg0jxU6W6w-26" value="" style="endArrow=classic;html=1;exitX=0.5;exitY=1;exitDx=0;exitDy=0;entryX=1;entryY=0.5;entryDx=0;entryDy=0;" parent="1" source="bGlqDA3MX0pg0jxU6W6w-24" target="bGlqDA3MX0pg0jxU6W6w-15" edge="1">
          <mxGeometry width="50" height="50" relative="1" as="geometry">
            <mxPoint x="490" y="370" as="sourcePoint" />
            <mxPoint x="340" y="270" as="targetPoint" />
          </mxGeometry>
        </mxCell>
        <mxCell id="bGlqDA3MX0pg0jxU6W6w-28" value="" style="endArrow=classic;startArrow=classic;html=1;entryX=0.5;entryY=1;entryDx=0;entryDy=0;exitX=0.5;exitY=0;exitDx=0;exitDy=0;" parent="1" source="bGlqDA3MX0pg0jxU6W6w-11" target="bGlqDA3MX0pg0jxU6W6w-24" edge="1">
          <mxGeometry width="50" height="50" relative="1" as="geometry">
            <mxPoint x="670" y="420" as="sourcePoint" />
            <mxPoint x="620" y="300" as="targetPoint" />
          </mxGeometry>
        </mxCell>
        <mxCell id="i9nScJfKlexpNecIIrMA-12" value="返回可执行脚本命令 以及 执行脚本文件 (启动中转客户端装置))" style="edgeLabel;html=1;align=center;verticalAlign=middle;resizable=0;points=[];" vertex="1" connectable="0" parent="bGlqDA3MX0pg0jxU6W6w-28">
          <mxGeometry x="0.2649" y="-3" relative="1" as="geometry">
            <mxPoint as="offset" />
          </mxGeometry>
        </mxCell>
        <mxCell id="bGlqDA3MX0pg0jxU6W6w-29" value="" style="endArrow=none;html=1;strokeWidth=2;" parent="1" edge="1">
          <mxGeometry width="50" height="50" relative="1" as="geometry">
            <mxPoint x="10" y="200" as="sourcePoint" />
            <mxPoint x="1660" y="200" as="targetPoint" />
          </mxGeometry>
        </mxCell>
        <mxCell id="bGlqDA3MX0pg0jxU6W6w-30" value="云端" style="text;html=1;strokeColor=none;fillColor=none;align=center;verticalAlign=middle;whiteSpace=wrap;rounded=0;" parent="1" vertex="1">
          <mxGeometry x="150" y="130" width="40" height="20" as="geometry" />
        </mxCell>
        <mxCell id="bGlqDA3MX0pg0jxU6W6w-31" value="局域网" style="text;html=1;strokeColor=none;fillColor=none;align=center;verticalAlign=middle;whiteSpace=wrap;rounded=0;" parent="1" vertex="1">
          <mxGeometry x="150" y="230" width="40" height="20" as="geometry" />
        </mxCell>
        <mxCell id="i9nScJfKlexpNecIIrMA-1" value="" style="endArrow=none;dashed=1;html=1;dashPattern=1 3;strokeWidth=2;" edge="1" parent="1">
          <mxGeometry width="50" height="50" relative="1" as="geometry">
            <mxPoint x="560" y="60" as="sourcePoint" />
            <mxPoint x="860" y="60" as="targetPoint" />
          </mxGeometry>
        </mxCell>
        <mxCell id="i9nScJfKlexpNecIIrMA-2" value="20210611-bag1-01.frame" style="text;html=1;strokeColor=none;fillColor=none;align=center;verticalAlign=middle;whiteSpace=wrap;rounded=0;" vertex="1" parent="1">
          <mxGeometry x="910" y="50" width="400" height="20" as="geometry" />
        </mxCell>
        <mxCell id="i9nScJfKlexpNecIIrMA-5" value="20210611-bag1-01-${中转服务id}.frame" style="text;html=1;strokeColor=none;fillColor=none;align=center;verticalAlign=middle;whiteSpace=wrap;rounded=0;" vertex="1" parent="1">
          <mxGeometry x="910" y="130" width="400" height="20" as="geometry" />
        </mxCell>
        <mxCell id="i9nScJfKlexpNecIIrMA-6" value="" style="endArrow=none;dashed=1;html=1;dashPattern=1 3;strokeWidth=2;" edge="1" parent="1">
          <mxGeometry width="50" height="50" relative="1" as="geometry">
            <mxPoint x="570" y="139.5" as="sourcePoint" />
            <mxPoint x="870" y="139.5" as="targetPoint" />
          </mxGeometry>
        </mxCell>
        <mxCell id="i9nScJfKlexpNecIIrMA-7" value="20210611-bag1-01-${中转服务id}{中转客户端装置id}.frame" style="text;html=1;strokeColor=none;fillColor=none;align=center;verticalAlign=middle;whiteSpace=wrap;rounded=0;" vertex="1" parent="1">
          <mxGeometry x="930" y="280" width="400" height="20" as="geometry" />
        </mxCell>
        <mxCell id="i9nScJfKlexpNecIIrMA-8" value="" style="endArrow=none;dashed=1;html=1;dashPattern=1 3;strokeWidth=2;" edge="1" parent="1" target="i9nScJfKlexpNecIIrMA-7">
          <mxGeometry width="50" height="50" relative="1" as="geometry">
            <mxPoint x="340" y="290" as="sourcePoint" />
            <mxPoint x="760" y="260" as="targetPoint" />
          </mxGeometry>
        </mxCell>
        <mxCell id="i9nScJfKlexpNecIIrMA-9" value="" style="endArrow=none;dashed=1;html=1;dashPattern=1 3;strokeWidth=2;" edge="1" parent="1">
          <mxGeometry width="50" height="50" relative="1" as="geometry">
            <mxPoint x="375" y="439.5" as="sourcePoint" />
            <mxPoint x="930" y="440" as="targetPoint" />
          </mxGeometry>
        </mxCell>
        <mxCell id="i9nScJfKlexpNecIIrMA-10" value="20210611-bag1-01-${中转服务id}{中转客户端装置id}{客户端代理id}.frame" style="text;html=1;strokeColor=none;fillColor=none;align=center;verticalAlign=middle;whiteSpace=wrap;rounded=0;" vertex="1" parent="1">
          <mxGeometry x="960" y="430" width="400" height="20" as="geometry" />
        </mxCell>
      </root>
    </mxGraphModel>
  </diagram>
</mxfile>
